<mxfile host="app.diagrams.net" agent="Mozilla/5.0 (Windows NT 10.0; Win64; x64) AppleWebKit/537.36 (KHTML, like Gecko) Chrome/130.0.0.0 Safari/537.36" version="24.8.3">
  <diagram name="Page-1" id="cL6I5ThDCglktqRZo5vu">
    <mxGraphModel dx="1465" dy="788" grid="1" gridSize="10" guides="1" tooltips="1" connect="1" arrows="1" fold="1" page="1" pageScale="1" pageWidth="827" pageHeight="1169" math="0" shadow="0">
      <root>
        <mxCell id="0" />
        <mxCell id="1" parent="0" />
        <mxCell id="t-Pw8yt_3uS7ez2Yv-US-1" value="Create Feedback" style="swimlane;whiteSpace=wrap;html=1;startSize=40;" vertex="1" parent="1">
          <mxGeometry x="100" y="10" width="670" height="630" as="geometry" />
        </mxCell>
        <mxCell id="t-Pw8yt_3uS7ez2Yv-US-45" value="" style="group" vertex="1" connectable="0" parent="t-Pw8yt_3uS7ez2Yv-US-1">
          <mxGeometry x="140" y="85" width="400" height="490" as="geometry" />
        </mxCell>
        <mxCell id="t-Pw8yt_3uS7ez2Yv-US-43" value="" style="rounded=0;whiteSpace=wrap;html=1;gradientColor=#FFE0F3;fillColor=#FFB0CD;" vertex="1" parent="t-Pw8yt_3uS7ez2Yv-US-45">
          <mxGeometry width="400" height="490.00000000000006" as="geometry" />
        </mxCell>
        <mxCell id="t-Pw8yt_3uS7ez2Yv-US-44" value="" style="rounded=0;whiteSpace=wrap;html=1;fillColor=#f5f5f5;fontColor=#333333;strokeColor=#666666;" vertex="1" parent="t-Pw8yt_3uS7ez2Yv-US-45">
          <mxGeometry width="400" height="55.12500000000001" as="geometry" />
        </mxCell>
        <mxCell id="t-Pw8yt_3uS7ez2Yv-US-46" value="Deadline" style="rounded=1;whiteSpace=wrap;html=1;" vertex="1" parent="t-Pw8yt_3uS7ez2Yv-US-45">
          <mxGeometry x="280" y="7.560000000000002" width="100" height="40" as="geometry" />
        </mxCell>
        <mxCell id="t-Pw8yt_3uS7ez2Yv-US-47" value="Name / ticket" style="rounded=1;whiteSpace=wrap;html=1;" vertex="1" parent="t-Pw8yt_3uS7ez2Yv-US-45">
          <mxGeometry x="150" y="7.560000000000002" width="100" height="40" as="geometry" />
        </mxCell>
        <mxCell id="t-Pw8yt_3uS7ez2Yv-US-48" value="Priority:" style="rounded=1;whiteSpace=wrap;html=1;" vertex="1" parent="t-Pw8yt_3uS7ez2Yv-US-45">
          <mxGeometry x="30" y="65" width="100" height="40" as="geometry" />
        </mxCell>
        <mxCell id="t-Pw8yt_3uS7ez2Yv-US-49" value="Project" style="rounded=1;whiteSpace=wrap;html=1;" vertex="1" parent="t-Pw8yt_3uS7ez2Yv-US-45">
          <mxGeometry x="150" y="65" width="100" height="40" as="geometry" />
        </mxCell>
        <mxCell id="t-Pw8yt_3uS7ez2Yv-US-50" value="Created Date" style="rounded=1;whiteSpace=wrap;html=1;" vertex="1" parent="t-Pw8yt_3uS7ez2Yv-US-45">
          <mxGeometry x="270" y="65" width="100" height="40" as="geometry" />
        </mxCell>
        <mxCell id="t-Pw8yt_3uS7ez2Yv-US-52" value="Main summary" style="rounded=1;whiteSpace=wrap;html=1;arcSize=28;fillColor=#f5f5f5;fontColor=#333333;strokeColor=#666666;" vertex="1" parent="t-Pw8yt_3uS7ez2Yv-US-45">
          <mxGeometry x="20" y="135" width="360" height="105" as="geometry" />
        </mxCell>
        <mxCell id="t-Pw8yt_3uS7ez2Yv-US-53" value="Sub task" style="rounded=1;whiteSpace=wrap;html=1;arcSize=28;fillColor=#f5f5f5;fontColor=#333333;strokeColor=#666666;" vertex="1" parent="t-Pw8yt_3uS7ez2Yv-US-45">
          <mxGeometry x="40" y="265" width="320" height="75" as="geometry" />
        </mxCell>
        <mxCell id="t-Pw8yt_3uS7ez2Yv-US-60" value="Asign to" style="rounded=1;whiteSpace=wrap;html=1;" vertex="1" parent="t-Pw8yt_3uS7ez2Yv-US-45">
          <mxGeometry x="20" y="435" width="100" height="40" as="geometry" />
        </mxCell>
        <mxCell id="t-Pw8yt_3uS7ez2Yv-US-63" value="Add sub task" style="rounded=1;whiteSpace=wrap;html=1;arcSize=28;fillColor=#f5f5f5;fontColor=#333333;strokeColor=#666666;" vertex="1" parent="t-Pw8yt_3uS7ez2Yv-US-45">
          <mxGeometry x="50" y="355" width="300" height="45" as="geometry" />
        </mxCell>
        <mxCell id="t-Pw8yt_3uS7ez2Yv-US-55" value="" style="ellipse;whiteSpace=wrap;html=1;fillColor=#cdeb8b;strokeColor=#36393d;" vertex="1" parent="t-Pw8yt_3uS7ez2Yv-US-45">
          <mxGeometry x="60" y="358.21" width="40" height="38.59" as="geometry" />
        </mxCell>
        <mxCell id="t-Pw8yt_3uS7ez2Yv-US-59" value="&lt;font style=&quot;font-size: 32px;&quot;&gt;+&lt;/font&gt;" style="text;html=1;align=center;verticalAlign=middle;whiteSpace=wrap;rounded=0;" vertex="1" parent="t-Pw8yt_3uS7ez2Yv-US-45">
          <mxGeometry x="65" y="362.85999999999996" width="30" height="29.3" as="geometry" />
        </mxCell>
        <mxCell id="t-Pw8yt_3uS7ez2Yv-US-66" value="" style="group" vertex="1" connectable="0" parent="t-Pw8yt_3uS7ez2Yv-US-45">
          <mxGeometry x="320" y="275" width="28.59" height="28.59" as="geometry" />
        </mxCell>
        <mxCell id="t-Pw8yt_3uS7ez2Yv-US-64" value="" style="ellipse;whiteSpace=wrap;html=1;fillColor=#ffcccc;strokeColor=#36393d;" vertex="1" parent="t-Pw8yt_3uS7ez2Yv-US-66">
          <mxGeometry width="28.589999999999986" height="28.589999999999986" as="geometry" />
        </mxCell>
        <mxCell id="t-Pw8yt_3uS7ez2Yv-US-65" value="" style="verticalLabelPosition=bottom;verticalAlign=top;html=1;shape=mxgraph.basic.x;fillColor=#ffcccc;strokeColor=#36393d;" vertex="1" parent="t-Pw8yt_3uS7ez2Yv-US-66">
          <mxGeometry x="4.574399999999987" y="5.717999999999976" width="19.44119999999999" height="17.15399999999999" as="geometry" />
        </mxCell>
        <mxCell id="t-Pw8yt_3uS7ez2Yv-US-73" value="" style="group" vertex="1" connectable="0" parent="t-Pw8yt_3uS7ez2Yv-US-45">
          <mxGeometry x="20.00459854014599" y="11.486479832373107" width="101.77615571776155" height="32.152959664745936" as="geometry" />
        </mxCell>
        <mxCell id="t-Pw8yt_3uS7ez2Yv-US-68" value="" style="rounded=0;whiteSpace=wrap;html=1;fillColor=#ffcccc;strokeColor=#36393d;" vertex="1" parent="t-Pw8yt_3uS7ez2Yv-US-73">
          <mxGeometry width="11.435523114355231" height="32.152959664745936" as="geometry" />
        </mxCell>
        <mxCell id="t-Pw8yt_3uS7ez2Yv-US-69" value="" style="rounded=0;whiteSpace=wrap;html=1;fillColor=#ffcccc;strokeColor=#36393d;" vertex="1" parent="t-Pw8yt_3uS7ez2Yv-US-73">
          <mxGeometry x="22.87104622871047" width="11.435523114355231" height="32.152959664745936" as="geometry" />
        </mxCell>
        <mxCell id="t-Pw8yt_3uS7ez2Yv-US-70" value="" style="rounded=0;whiteSpace=wrap;html=1;fillColor=#ffcccc;strokeColor=#36393d;" vertex="1" parent="t-Pw8yt_3uS7ez2Yv-US-73">
          <mxGeometry x="45.74209245742094" width="11.435523114355231" height="32.152959664745936" as="geometry" />
        </mxCell>
        <mxCell id="t-Pw8yt_3uS7ez2Yv-US-71" value="" style="rounded=0;whiteSpace=wrap;html=1;fillColor=#ffcccc;strokeColor=#36393d;" vertex="1" parent="t-Pw8yt_3uS7ez2Yv-US-73">
          <mxGeometry x="67.46958637469587" width="11.435523114355231" height="32.152959664745936" as="geometry" />
        </mxCell>
        <mxCell id="t-Pw8yt_3uS7ez2Yv-US-72" value="" style="rounded=0;whiteSpace=wrap;html=1;fillColor=#ffcccc;strokeColor=#36393d;" vertex="1" parent="t-Pw8yt_3uS7ez2Yv-US-73">
          <mxGeometry x="90.34063260340633" width="11.435523114355231" height="32.152959664745936" as="geometry" />
        </mxCell>
        <mxCell id="t-Pw8yt_3uS7ez2Yv-US-61" value="Home" style="rounded=1;whiteSpace=wrap;html=1;fillColor=#f5f5f5;fontColor=#333333;strokeColor=#666666;" vertex="1" parent="t-Pw8yt_3uS7ez2Yv-US-1">
          <mxGeometry width="130" height="40" as="geometry" />
        </mxCell>
      </root>
    </mxGraphModel>
  </diagram>
</mxfile>
